<?xml version="1.0" encoding="UTF-8"?>
<svg version="1.1" xmlns="http://www.w3.org/2000/svg" width="1024" height="1024">
<path d="M0 0 C337.92 0 675.84 0 1024 0 C1024 337.92 1024 675.84 1024 1024 C686.08 1024 348.16 1024 0 1024 C0 686.08 0 348.16 0 0 Z " fill="#FEFEFE" transform="translate(0,0)"/>
<path d="M0 0 C1.72243469 -0.00435276 3.44486745 -0.00953778 5.16729736 -0.01548767 C9.82666872 -0.0288313 14.48595872 -0.02946129 19.14534545 -0.02692437 C23.04644934 -0.02585106 26.94753701 -0.03074747 30.8486374 -0.03552979 C40.06072514 -0.04660994 49.27277211 -0.04707143 58.48486328 -0.04101562 C67.95912354 -0.03498273 77.43323504 -0.0472729 86.90746993 -0.06858569 C95.06577405 -0.08625722 103.22403107 -0.09219415 111.3823536 -0.08894795 C116.24413717 -0.08714306 121.10581471 -0.08969097 125.9675808 -0.10366249 C130.54528822 -0.11632611 135.12276568 -0.11421685 139.70046997 -0.1012516 C141.3700449 -0.09890436 143.03963644 -0.10155312 144.70919228 -0.10987473 C163.81666879 -0.19816124 180.24813416 2.90857565 194.60083008 16.63012695 C205.06461903 28.3975441 211.11294825 41.9821195 211.09283447 57.82485962 C211.09729116 58.93465905 211.09729116 58.93465905 211.10183787 60.06687868 C211.11047949 62.53540144 211.11202927 65.00387545 211.11352539 67.47241211 C211.11815684 69.24690859 211.12318194 71.02140409 211.12857056 72.79589844 C211.14166646 77.61024455 211.14813421 82.42457672 211.15258121 87.23893785 C211.15551693 90.25055534 211.15962271 93.26216906 211.16408539 96.27378464 C211.17775392 105.7073695 211.18742331 115.14094571 211.19128728 124.57453978 C211.19576433 135.44361182 211.2132986 146.31255788 211.24228787 157.18159163 C211.2639475 165.59627049 211.27399387 174.01091401 211.2753284 182.42562044 C211.2763735 187.44500668 211.28221831 192.46427438 211.30014801 197.48363113 C211.31670249 202.20983793 211.31874859 206.93583803 211.310009 211.6620636 C211.30924252 213.3889204 211.31352957 215.11578866 211.32346725 216.84261703 C211.42206547 235.05556086 208.25009437 250.48825867 195.22973633 264.02856445 C194.47821289 264.76977539 193.72668945 265.51098633 192.95239258 266.2746582 C192.31430664 266.92305664 191.6762207 267.57145508 191.01879883 268.23950195 C179.8690207 278.83295019 165.56894007 282.38808078 150.57928467 282.40837097 C149.88262861 282.41063653 149.18597254 282.41290208 148.46820569 282.41523629 C146.15790427 282.42151403 143.84766246 282.42075097 141.53735352 282.41992188 C139.87093531 282.42291728 138.2045178 282.42632069 136.5381012 282.43009949 C132.02757874 282.43890536 127.51707528 282.44127618 123.00654507 282.44191527 C120.18353263 282.44262777 117.36052498 282.44476588 114.53751373 282.44741249 C104.67466426 282.45665497 94.81182827 282.4607488 84.94897461 282.45996094 C75.77862878 282.4593606 66.60834186 282.46990664 57.43801093 282.4857046 C49.54558022 282.49881296 41.65316868 282.50414345 33.76072717 282.50350553 C29.05550834 282.50325149 24.35034189 282.50605047 19.64513397 282.51668358 C15.21605146 282.52642006 10.78707081 282.52640598 6.35798454 282.51916695 C4.74078407 282.51812794 3.12357707 282.52044292 1.50638771 282.5265274 C-15.85602413 282.5875735 -31.31244397 280.82401069 -45.04760742 269.2746582 C-45.85327148 268.66750977 -46.65893555 268.06036133 -47.48901367 267.43481445 C-59.44297966 257.3423821 -64.47557539 243.36580769 -66.04760742 228.2746582 C-66.32448606 222.41369593 -66.34223341 216.56347905 -66.33813477 210.69702148 C-66.34413268 208.96576654 -66.35094109 207.23451425 -66.35848999 205.50326538 C-66.37602498 200.83787302 -66.38083994 196.17255419 -66.38212156 191.50713205 C-66.38355042 188.58372531 -66.38783373 185.66033684 -66.393116 182.73693466 C-66.41157226 172.51398293 -66.41979182 162.29108308 -66.41821289 152.06811523 C-66.41701148 142.57671337 -66.4381251 133.08553888 -66.46970022 123.59419453 C-66.49594162 115.4111647 -66.50657696 107.22820882 -66.50530207 99.04513729 C-66.50479491 94.17272151 -66.51034145 89.30050832 -66.53165817 84.42813492 C-66.55117479 79.84293594 -66.55107435 75.25813013 -66.53662491 70.67291641 C-66.53455251 69.00214048 -66.53914261 67.33133903 -66.55134583 65.66060638 C-66.68629529 45.88515774 -62.11343786 29.43822245 -47.91479492 14.94262695 C-43.95301528 11.25612083 -39.89467732 8.63908254 -35.04760742 6.2746582 C-34.28577148 5.88793945 -33.52393555 5.5012207 -32.73901367 5.1027832 C-22.07058559 -0.00031238 -11.55840476 -0.01933251 0 0 Z " fill="#F26622" transform="translate(190.047607421875,367.725341796875)"/>
<path d="M0 0 C9.07372326 7.06100646 15.29577024 18.63846825 17 30 C17.03752354 31.74442749 17.0480276 33.48959146 17.03515625 35.234375 C17.03008057 36.12866211 17.02500488 37.02294922 17.01977539 37.94433594 C17.01324951 38.62270508 17.00672363 39.30107422 17 40 C17.69561035 39.97905273 18.3912207 39.95810547 19.10791016 39.93652344 C22.28012458 39.8530302 25.45210731 39.80123471 28.625 39.75 C30.26662109 39.69972656 30.26662109 39.69972656 31.94140625 39.6484375 C36.68741306 39.59091014 40.15141493 39.6199242 44.5234375 41.578125 C50.26734472 47.19519515 51.66852268 52.74553897 52.46386719 60.4609375 C52.62567726 61.84547371 52.62567726 61.84547371 52.79075623 63.25798035 C53.14162354 66.29545099 53.46968197 69.33489539 53.796875 72.375 C54.036638 74.50395388 54.27756279 76.63277721 54.51959229 78.76147461 C55.02339348 83.22227573 55.51651483 87.68408358 56.00146484 92.14697266 C56.6193192 97.82959218 57.25820084 103.50958832 57.90458298 109.18902588 C58.40372047 113.58785985 58.89412582 117.98763273 59.38175201 122.38775635 C59.61414777 124.48006739 59.84855123 126.57215655 60.0851059 128.66400146 C64.02698225 163.71916012 64.02698225 163.71916012 58 172 C53.98175449 176.26888054 50.40861791 179.82988476 44.31059742 180.13422108 C42.67110394 180.1406313 42.67110394 180.1406313 40.99848938 180.14717102 C39.11646065 180.15790398 39.11646065 180.15790398 37.19641113 180.16885376 C35.8032229 180.17169401 34.41003441 180.17440574 33.0168457 180.17700195 C31.55156798 180.18326759 30.08629185 180.18991448 28.62101746 180.19691467 C23.80594996 180.21794825 18.99088218 180.22831745 14.17578125 180.23828125 C12.51704581 180.24232928 10.85831053 180.24644622 9.19957542 180.25063133 C1.40517493 180.26968268 -6.38921611 180.28391296 -14.18363541 180.2922433 C-23.17432708 180.30201126 -32.16477226 180.32831938 -41.15537709 180.36874419 C-48.10837342 180.39893177 -55.0612992 180.41371474 -62.01435977 180.41702431 C-66.16517341 180.4193721 -70.3157237 180.42829675 -74.4664669 180.45348549 C-78.37437335 180.47681718 -82.28184404 180.48097921 -86.18980217 180.47072411 C-87.6200226 180.47022984 -89.05026485 180.476518 -90.48041916 180.49028015 C-99.32650773 180.57060568 -106.31856623 180.46453337 -113.0234375 174.0703125 C-122.52674143 160.39214673 -118.60035271 144.49596859 -116.8828125 128.80078125 C-116.66299153 126.75445377 -116.44358764 124.70808144 -116.22457886 122.66166687 C-115.76625231 118.39240203 -115.30348758 114.1236492 -114.83740234 109.85522461 C-114.2422767 104.40248783 -113.65742481 98.94870824 -113.07577705 93.49451923 C-112.62488441 89.27578108 -112.1689955 85.05759441 -111.71157455 80.83955956 C-111.49407582 78.82919846 -111.27800149 76.81868269 -111.06341934 74.80800819 C-110.76227992 71.99423895 -110.45451168 69.18126938 -110.14501953 66.3684082 C-110.0587027 65.54999954 -109.97238586 64.73159088 -109.88345337 63.88838196 C-108.12150347 48.12150347 -108.12150347 48.12150347 -102 42 C-98.55366118 39.70244078 -97.28931609 39.76356024 -93.23828125 39.8046875 C-91.56088867 39.81435547 -91.56088867 39.81435547 -89.84960938 39.82421875 C-88.09874023 39.84935547 -88.09874023 39.84935547 -86.3125 39.875 C-84.54422852 39.88853516 -84.54422852 39.88853516 -82.74023438 39.90234375 C-79.82661974 39.92593577 -76.91341108 39.9588546 -74 40 C-74.02610352 38.81482788 -74.02610352 38.81482788 -74.05273438 37.60571289 C-74.24021953 22.99861019 -70.12523623 12.61470829 -60.0546875 1.9375 C-42.97376411 -14.10612035 -18.48839337 -13.59627554 0 0 Z " fill="#3134E6" transform="translate(291,420)"/>
<path d="M0 0 C2.77743176 2.69969194 4.85401893 5.7810284 7 9 C7.58394531 8.22076172 7.58394531 8.22076172 8.1796875 7.42578125 C13.82683224 0.3863681 20.88779457 -4.14090192 29.97265625 -5.23828125 C37.6229704 -5.50997465 44.22499209 -3.18111568 50.8125 0.625 C57.09210244 7.44285408 60.13160373 14.14530707 60.11352539 23.32910156 C60.11341209 25.25064056 60.11341209 25.25064056 60.11329651 27.21099854 C60.10819026 28.60420775 60.10297427 29.99741657 60.09765625 31.390625 C60.09579032 32.81980337 60.09436724 34.24898238 60.09336853 35.67816162 C60.08955715 39.43300148 60.07973867 43.18780243 60.06866455 46.94262695 C60.05842075 50.77685012 60.05386455 54.61107959 60.04882812 58.4453125 C60.03811513 65.96356143 60.02052953 73.4817703 60 81 C53.07 81 46.14 81 39 81 C38.970271 78.41949829 38.970271 78.41949829 38.93994141 75.78686523 C38.87198678 70.08309121 38.79519801 64.37948117 38.71247292 58.67590237 C38.66266936 55.22009175 38.616339 51.76430935 38.578125 48.30834961 C38.53396884 44.32909372 38.47438409 40.35013869 38.4140625 36.37109375 C38.40251129 35.13854355 38.39096008 33.90599335 38.37905884 32.63609314 C38.28533612 24.11347123 38.28533612 24.11347123 36 16 C30.88264492 13.49354037 25.41930896 13.35604737 20 15 C15.27069612 17.83578752 12.77423357 20.78145917 11 26 C10.67748812 28.72403048 10.67748812 28.72403048 10.68115234 31.61645508 C10.66128265 32.71721878 10.64141296 33.81798248 10.62094116 34.95210266 C10.60938995 36.1293541 10.59783875 37.30660553 10.5859375 38.51953125 C10.56657135 39.73323898 10.5472052 40.94694672 10.5272522 42.19743347 C10.46753429 46.06905111 10.42110145 49.94069861 10.375 53.8125 C10.33681312 56.439466 10.29776098 59.06641957 10.2578125 61.69335938 C10.16183884 68.12880518 10.07777842 74.5643096 10 81 C3.4 81 -3.2 81 -10 81 C-10.01458252 79.441604 -10.02916504 77.88320801 -10.04418945 76.27758789 C-10.1023792 70.46827827 -10.17961127 64.65934788 -10.26245117 58.8503418 C-10.29560332 56.34129006 -10.32366514 53.83216548 -10.34643555 51.32299805 C-10.3801597 47.70590319 -10.43248627 44.08946998 -10.48828125 40.47265625 C-10.49467117 39.35979752 -10.5010611 38.24693878 -10.50764465 37.10035706 C-10.63922588 30.05123838 -11.0035049 22.68799397 -15.625 17 C-19.96921226 15.170858 -24.4366071 14.21277761 -29.03515625 15.625 C-33.54696742 17.92401206 -35.30456258 20.35310795 -37 25 C-37.46799509 29.34931641 -37.48874379 33.68314439 -37.51171875 38.0546875 C-37.52966995 39.31137238 -37.54762115 40.56805725 -37.56611633 41.86282349 C-37.61100911 45.18695624 -37.6433604 48.51072339 -37.66955566 51.83502197 C-37.69945334 55.23389922 -37.74595173 58.63254598 -37.79101562 62.03125 C-37.8759166 68.68741409 -37.9427422 75.34354303 -38 82 C-45.26 82 -52.52 82 -60 82 C-60 53.95 -60 25.9 -60 -3 C-52.74 -3 -45.48 -3 -38 -3 C-37.67 -0.36 -37.34 2.28 -37 5 C-36.57589844 4.60167969 -36.15179687 4.20335937 -35.71484375 3.79296875 C-25.55478631 -5.38457764 -11.81406346 -8.36719862 0 0 Z " fill="#2E32E7" transform="translate(764,472)"/>
<path d="M0 0 C6.10710713 4.45863075 8.98016815 10.16781086 11.0625 17.3125 C11.30300903 20.42575073 11.30300903 20.42575073 11.28955078 23.77685547 C11.28939972 25.03770966 11.28924866 26.29856384 11.28909302 27.59762573 C11.27888217 28.95831463 11.26845022 30.31900188 11.2578125 31.6796875 C11.25407824 33.08358559 11.25123322 34.4874863 11.24923706 35.89138794 C11.24163304 39.57063097 11.2220127 43.24971389 11.1998291 46.92889404 C11.17930071 50.68955317 11.17022044 54.45023839 11.16015625 58.2109375 C11.1387634 65.57820614 11.10360802 72.94531016 11.0625 80.3125 C4.4625 80.3125 -2.1375 80.3125 -8.9375 80.3125 C-9.4325 76.3525 -9.4325 76.3525 -9.9375 72.3125 C-10.64712891 73.01826172 -10.64712891 73.01826172 -11.37109375 73.73828125 C-19.71914666 81.59814394 -26.94637578 82.90762887 -38.3359375 82.66796875 C-43.19885385 82.18800629 -46.821365 80.89182477 -50.9375 78.3125 C-51.845 77.755625 -52.7525 77.19875 -53.6875 76.625 C-60.23796989 69.89257262 -62.33810917 62.13152815 -62.21484375 52.94140625 C-61.5902581 47.02103807 -59.2641256 42.69942677 -55.1875 38.4375 C-47.24529934 33.24452264 -39.19012583 32.47153381 -29.9375 31.3125 C-27.58173263 31.01230502 -25.22741948 30.70039136 -22.875 30.375 C-21.85277344 30.24222656 -20.83054687 30.10945313 -19.77734375 29.97265625 C-16.34867012 29.17561933 -13.4554068 27.8304068 -10.9375 25.3125 C-10.39746417 20.94794812 -10.11597251 17.44564137 -12.75 13.8125 C-17.69214284 10.42360205 -23.17206215 10.87534949 -28.9375 11.3125 C-32.46006618 12.15469134 -32.46006618 12.15469134 -34.9375 14.3125 C-35.9275 16.6225 -36.9175 18.9325 -37.9375 21.3125 C-44.8675 21.3125 -51.7975 21.3125 -58.9375 21.3125 C-56.396766 11.149564 -53.5346596 5.23498772 -44.9375 -0.6875 C-30.9962591 -7.71116931 -13.6004295 -8.2501779 0 0 Z " fill="#2D32E7" transform="translate(893.9375,472.6875)"/>
<path d="M0 0 C7.26 0 14.52 0 22 0 C22.01458252 1.69527832 22.02916504 3.39055664 22.04418945 5.13720703 C22.0959418 10.75323129 22.16125465 16.36898956 22.23571491 21.98475838 C22.28034577 25.38792657 22.3196173 28.79097707 22.34643555 32.19433594 C22.37754229 36.11158567 22.43232892 40.02833576 22.48828125 43.9453125 C22.49467117 45.16115021 22.5010611 46.37698792 22.50764465 47.62966919 C22.55238082 55.77247357 22.55238082 55.77247357 26 63 C31.35658477 66.09033737 35.95639077 66.87323079 42.0078125 65.56640625 C47.48270638 63.89063075 51.02217508 60.88401221 54 56 C56.50494753 50.26550928 56.34724886 44.62347563 56.4140625 38.4765625 C56.43342865 37.37524994 56.4527948 36.27393738 56.4727478 35.13925171 C56.53234928 31.63457901 56.57885162 28.12987312 56.625 24.625 C56.66319762 22.24347555 56.70225039 19.86196466 56.7421875 17.48046875 C56.83963839 11.65371783 56.91936272 5.82710479 57 0 C64.26 0 71.52 0 79 0 C79 27.72 79 55.44 79 84 C71.74 84 64.48 84 57 84 C56.67 80.7 56.34 77.4 56 74 C55.030625 75.0725 54.06125 76.145 53.0625 77.25 C46.31984956 84.02005959 38.19685427 86.13065685 28.875 86.3125 C21.22395316 86.3125 14.79985358 85.38886372 8.94140625 80.1640625 C2.36334418 73.02529243 -0.13282799 66.28116507 -0.11352539 56.64916992 C-0.11344986 55.3882402 -0.11337433 54.12731049 -0.11329651 52.82817078 C-0.10819069 51.46226969 -0.1029747 50.09636902 -0.09765625 48.73046875 C-0.0957897 47.32513988 -0.09436692 45.91981035 -0.09336853 44.51448059 C-0.089562 40.82705875 -0.07974774 37.1396767 -0.06866455 33.45227051 C-0.05841025 29.68498269 -0.05386232 25.9176884 -0.04882812 22.15039062 C-0.0381237 14.7669069 -0.0205421 7.38346411 0 0 Z " fill="#F26020" transform="translate(611,469)"/>
<path d="M0 0 C7.93657409 5.34082048 11.63580047 10.79857016 14 20 C14.50598484 24.95666835 14.46996837 29.880187 14.390625 34.85546875 C14.3831448 36.25221437 14.3774603 37.64897063 14.37347412 39.04573059 C14.3583572 42.68403193 14.31920077 46.32167266 14.2746582 49.9597168 C14.23340007 53.68724639 14.21539862 57.41488497 14.1953125 61.14257812 C14.15268854 68.42871841 14.08245822 75.71418169 14 83 C7.07 83 0.14 83 -7 83 C-7.01458252 81.441604 -7.02916504 79.88320801 -7.04418945 78.27758789 C-7.1023792 72.46827827 -7.17961127 66.65934788 -7.26245117 60.8503418 C-7.29560332 58.34129006 -7.32366514 55.83216548 -7.34643555 53.32299805 C-7.3801597 49.70590319 -7.43248627 46.08946998 -7.48828125 42.47265625 C-7.49467117 41.35979752 -7.5010611 40.24693878 -7.50764465 39.10035706 C-7.64787306 31.58798839 -7.96827345 24.10946313 -13.4375 18.5 C-17.9694601 15.84714531 -21.74000037 15.5616667 -27 16 C-32.88920854 17.95933744 -36.46668635 20.9677048 -40 26 C-41.01545766 29.04637299 -41.1541977 31.19777098 -41.20532227 34.3894043 C-41.22526749 35.49031906 -41.24521271 36.59123383 -41.26576233 37.72550964 C-41.28247482 38.91308365 -41.29918732 40.10065765 -41.31640625 41.32421875 C-41.33718735 42.54075638 -41.35796844 43.75729401 -41.37937927 45.01069641 C-41.44484717 48.90290596 -41.50374715 52.79518385 -41.5625 56.6875 C-41.60568782 59.32357482 -41.6493022 61.95964269 -41.69335938 64.59570312 C-41.80052582 71.06373176 -41.90180126 77.53182925 -42 84 C-49.26 84 -56.52 84 -64 84 C-64 55.95 -64 27.9 -64 -1 C-56.74 -1 -49.48 -1 -42 -1 C-41.67 1.97 -41.34 4.94 -41 8 C-40.53851563 7.54109375 -40.07703125 7.0821875 -39.6015625 6.609375 C-28.8218494 -3.53122467 -13.70675657 -6.93088014 0 0 Z " fill="#F26322" transform="translate(498,470)"/>
<path d="M0 0 C6.64143311 5.49062111 9.41031691 10.80971834 10.625 19.3125 C3.695 19.3125 -3.235 19.3125 -10.375 19.3125 C-11.365 17.3325 -12.355 15.3525 -13.375 13.3125 C-18.55515645 10.28127861 -24.56665048 10.81800538 -30.375 11.3125 C-34.03798886 12.1776124 -34.03798886 12.1776124 -36.375 14.3125 C-37.70408167 17.20322953 -37.70408167 17.20322953 -37.375 20.3125 C-31.59184136 27.54830038 -20.78353392 28.31901743 -12.125 29.8125 C-3.50948049 31.31657046 3.99133583 33.18757178 9.625 40.3125 C13.41833265 46.59111956 13.51351075 53.11898027 12.625 60.3125 C10.41027608 67.79744657 6.34143989 72.48652799 -0.375 76.3125 C-12.18995999 82.35600749 -26.19537856 83.67446869 -39 79.6875 C-47.76800261 76.1974431 -56.20854528 70.92127481 -60.40625 62.16015625 C-62.375 57.11979167 -62.375 57.11979167 -62.375 54.3125 C-58.97982186 54.1376064 -55.58580513 54.03146235 -52.1875 53.9375 C-51.22779297 53.88722656 -50.26808594 53.83695313 -49.27929688 53.78515625 C-42.19993361 53.63817985 -42.19993361 53.63817985 -39.79443359 55.60449219 C-38.62124062 57.14903196 -37.49688691 58.7303007 -36.375 60.3125 C-31.89415963 62.45122298 -27.73694806 62.61009249 -22.8125 62.625 C-21.53246094 62.64175781 -20.25242187 62.65851563 -18.93359375 62.67578125 C-15.18782682 62.29339231 -13.31046384 61.62710507 -10.375 59.3125 C-9.03949153 56.46622409 -9.03949153 56.46622409 -9.375 53.3125 C-13.05056184 47.83334852 -17.72903704 47.20713858 -23.97265625 45.93554688 C-25.17792969 45.70931641 -26.38320313 45.48308594 -27.625 45.25 C-49.61552092 40.99722862 -49.61552092 40.99722862 -57.375 32.3125 C-61.06804561 26.35597483 -61.19903009 20.19772922 -60.375 13.3125 C-57.95502275 5.40203675 -52.31205751 0.50363891 -45.375 -3.6875 C-31.84210624 -10.11562454 -12.20712121 -8.23751225 0 0 Z " fill="#F26021" transform="translate(586.375,473.6875)"/>
<path d="M0 0 C4.92975517 1.84865819 6.15134265 4.79070774 8.5 9.3125 C13.18846394 17.34986675 19.98630446 23.6056876 28.83203125 26.69140625 C39.19659767 29.10424089 49.26034668 27.13285103 58.25 21.625 C64.66156983 17.0533701 68.43257361 10.6899847 72.32421875 3.9765625 C73.5 2.3125 73.5 2.3125 76.5 0.3125 C80.0625 0.5 80.0625 0.5 83.5 1.3125 C86.0297498 5.10712469 86.30836005 7.93147723 85.5 12.3125 C80.2812589 25.3401662 70.80909954 34.41027085 58.265625 40.375 C46.5423485 45.10066184 32.36785885 44.75672225 20.5703125 40.640625 C7.36248888 34.92731707 -1.34065736 26.25056052 -7.5 13.3125 C-8.59672989 10.19655714 -8.73813741 8.70595806 -8.5 5.3125 C-5.96245895 1.42689027 -4.6401099 0.41429553 0 0 Z " fill="#FBFBFE" transform="translate(223.5,508.6875)"/>
<path d="M0 0 C7.14235175 4.4285048 11.41053348 11.07927887 14 19 C14.495 24.445 14.495 24.445 15 30 C-5.13 30 -25.26 30 -46 30 C-46 18.53163928 -44.37645576 12.44295587 -36.33984375 4.1328125 C-25.65476886 -5.6068384 -12.64276837 -6.3498162 0 0 Z " fill="#F36823" transform="translate(278,430)"/>
<path d="M0 0 C-0.25690181 2.06428157 -0.53113046 4.12641094 -0.8125 6.1875 C-0.96332031 7.33605469 -1.11414063 8.48460937 -1.26953125 9.66796875 C-2.54424955 15.48259287 -5.17539526 18.62277668 -10 22 C-13.29092594 23.09697531 -15.91112159 23.2371983 -19.375 23.3125 C-20.49648438 23.34988281 -21.61796875 23.38726563 -22.7734375 23.42578125 C-26.70400398 22.90709875 -28.27796048 21.8453203 -31 19 C-32.23939423 15.9837751 -32.33646236 13.23003862 -32 10 C-30.41608146 6.71032304 -29.95669741 5.81860356 -27 4 C-22.73474819 2.55871986 -18.42989994 1.76516454 -14 1 C-12.948125 0.7834375 -11.89625 0.566875 -10.8125 0.34375 C-3.43956954 -1.14652318 -3.43956954 -1.14652318 0 0 Z " fill="#FBFBFE" transform="translate(885,515)"/>
<path d="M0 0 C7.26 0 14.52 0 22 0 C21.67 3.63 21.34 7.26 21 11 C20.67 11 20.34 11 20 11 C20 7.7 20 4.4 20 1 C14.06 1 8.12 1 2 1 C2 28.06 2 55.12 2 83 C7.94 83 13.88 83 20 83 C19.98428955 81.43113037 19.9685791 79.86226074 19.95239258 78.24584961 C19.89798612 72.41077838 19.8636106 66.57572948 19.83520508 60.74047852 C19.82014295 58.21765367 19.79968923 55.6948549 19.77368164 53.17211914 C19.73718617 49.54046176 19.7202474 45.90915142 19.70703125 42.27734375 C19.69154739 41.15416245 19.67606354 40.03098114 19.66011047 38.87376404 C19.65881672 32.81832479 19.95303955 28.30081298 23 23 C23.66 22.67 24.32 22.34 25 22 C24.67657623 22.86803253 24.35315247 23.73606506 24.01992798 24.63040161 C23.02404383 27.92056492 22.72674524 30.49410723 22.68115234 33.91357422 C22.66128265 35.05430389 22.64141296 36.19503357 22.62094116 37.37033081 C22.60938995 38.58616852 22.59783875 39.80200623 22.5859375 41.0546875 C22.56657135 42.31137238 22.5472052 43.56805725 22.5272522 44.86282349 C22.47772276 48.18687688 22.43640102 51.51082337 22.39910889 54.83502197 C22.35894066 58.23386431 22.30790713 61.63254204 22.2578125 65.03125 C22.16190073 71.68740275 22.07781919 78.34361213 22 85 C14.74 85 7.48 85 0 85 C0 56.95 0 28.9 0 0 Z " fill="#3738F3" transform="translate(704,469)"/>
<path d="M0 0 C6.93 0 13.86 0 21 0 C21 3.63 21 7.26 21 11 C20.67 11 20.34 11 20 11 C20 7.7 20 4.4 20 1 C13.73 1 7.46 1 1 1 C1 28.06 1 55.12 1 83 C7.27 83 13.54 83 20 83 C19.98952637 81.51677246 19.97905273 80.03354492 19.96826172 78.50537109 C19.93201089 72.99270042 19.90908089 67.48004024 19.89013672 61.96728516 C19.88009076 59.58315254 19.86645161 57.1990322 19.84912109 54.81494141 C19.82481136 51.38440922 19.81350266 47.95404023 19.8046875 44.5234375 C19.79436493 43.46071625 19.78404236 42.397995 19.77340698 41.30307007 C19.77262674 36.13499906 19.9070365 31.83047286 22 27 C23.03701461 30.11104384 23.08877082 32.13412808 23.02172852 35.3894043 C23.00163223 36.49031906 22.98153595 37.59123383 22.96083069 38.72550964 C22.92027809 40.50687065 22.92027809 40.50687065 22.87890625 42.32421875 C22.85529526 43.54075638 22.83168427 44.75729401 22.80735779 46.01069641 C22.73067585 49.90308164 22.64667058 53.79527019 22.5625 57.6875 C22.50928388 60.32355803 22.45654345 62.9596257 22.40429688 65.59570312 C22.27505445 72.06392705 22.13924311 78.53198395 22 85 C14.74 85 7.48 85 0 85 C0 56.95 0 28.9 0 0 Z " fill="#F6311C" transform="translate(434,469)"/>
<path d="M0 0 C0.33 0 0.66 0 1 0 C1 1.65 1 3.3 1 5 C19.81 5 38.62 5 58 5 C57.67 5.66 57.34 6.32 57 7 C37.86 7 18.72 7 -1 7 C-0.67 4.69 -0.34 2.38 0 0 Z " fill="#FB800E" transform="translate(233,453)"/>
<path d="M0 0 C3.39494112 -0.20402829 6.78830486 -0.32784854 10.1875 -0.4375 C11.14720703 -0.49615234 12.10691406 -0.55480469 13.09570312 -0.61523438 C20.11487607 -0.78524894 20.11487607 -0.78524894 22.79150391 1.58935547 C24.17578125 3.52734375 24.17578125 3.52734375 26 7 C23.53199953 5.84826645 21.95216435 4.95216435 20 3 C18.06742145 2.63168919 18.06742145 2.63168919 15.8671875 2.5859375 C15.06152344 2.54726563 14.25585938 2.50859375 13.42578125 2.46875 C12.58402344 2.4378125 11.74226562 2.406875 10.875 2.375 C10.02550781 2.33632813 9.17601562 2.29765625 8.30078125 2.2578125 C6.20088316 2.16343506 4.10047109 2.08062414 2 2 C6.26561197 12.19235167 11.27134293 17.62435603 21.5 21.9375 C23.32731658 22.64083596 25.15872166 23.334071 27 24 C24.27085459 25.07866223 23.10022717 25.03293178 20.265625 24.1015625 C11.56773854 19.84275281 4.64917465 14.82837666 1 5.5625 C0 2 0 2 0 0 Z " fill="#F3360C" transform="translate(524,528)"/>
<path d="M0 0 C0.33 0 0.66 0 1 0 C1 3.96 1 7.92 1 12 C-1.58521484 12.02126953 -1.58521484 12.02126953 -4.22265625 12.04296875 C-6.50263053 12.0898818 -8.78257762 12.13812911 -11.0625 12.1875 C-12.19623047 12.19330078 -13.32996094 12.19910156 -14.49804688 12.20507812 C-21.65896294 12.39297388 -25.6500162 13.1314371 -31 18 C-31 16.68 -31 15.36 -31 14 C-31.33 13.01 -31.66 12.02 -32 11 C-29.69 10.34 -27.38 9.68 -25 9 C-25 9.66 -25 10.32 -25 11 C-24.01 10.67 -23.02 10.34 -22 10 C-20.37280518 9.91856145 -18.74248281 9.8924698 -17.11328125 9.90234375 C-16.17548828 9.90556641 -15.23769531 9.90878906 -14.27148438 9.91210938 C-12.80678711 9.92467773 -12.80678711 9.92467773 -11.3125 9.9375 C-9.83040039 9.94426758 -9.83040039 9.94426758 -8.31835938 9.95117188 C-5.87884526 9.96295697 -3.43945311 9.97940989 -1 10 C-1.020625 8.72125 -1.04125 7.4425 -1.0625 6.125 C-1.125 2.25 -1.125 2.25 0 0 Z " fill="#F77C14" transform="translate(216,448)"/>
<path d="M0 0 C0.33 0 0.66 0 1 0 C1.48062972 3.64564198 1.95923288 7.29154738 2.4375 10.9375 C2.57220703 11.95908203 2.70691406 12.98066406 2.84570312 14.03320312 C5.1428721 31.57012726 5.1428721 31.57012726 5.0625 38.5625 C5.05347656 39.59503906 5.04445313 40.62757813 5.03515625 41.69140625 C5.02355469 42.45324219 5.01195312 43.21507812 5 44 C4.67 44 4.34 44 4 44 C3.67 42.02 3.34 40.04 3 38 C2.01 38.495 2.01 38.495 1 39 C0.61126172 37.04434742 0.23939167 35.08533496 -0.125 33.125 C-0.33382813 32.03445313 -0.54265625 30.94390625 -0.7578125 29.8203125 C-0.83773438 28.88960937 -0.91765625 27.95890625 -1 27 C-0.34 26.34 0.32 25.68 1 25 C1.6425235 22.93125966 1.6425235 22.93125966 2 21 C1.34 21 0.68 21 0 21 C0 14.07 0 7.14 0 0 Z " fill="#2227F0" transform="translate(347,528)"/>
<path d="M0 0 C4.75503821 4.60164989 5.35154842 7.84534677 6.0625 14.3125 C6.15192871 15.1154248 6.24135742 15.91834961 6.33349609 16.74560547 C7.04177702 23.5248658 7.21680176 30.18278918 7 37 C6.67 37 6.34 37 6 37 C5.92483154 36.40461426 5.84966309 35.80922852 5.7722168 35.19580078 C5.42444674 32.5035401 5.05624648 29.81446436 4.6875 27.125 C4.51057617 25.71927734 4.51057617 25.71927734 4.33007812 24.28515625 C4.14155273 22.94130859 4.14155273 22.94130859 3.94921875 21.5703125 C3.83924561 20.74289551 3.72927246 19.91547852 3.6159668 19.06298828 C3.12664077 16.62323681 3.12664077 16.62323681 0 15 C-0.22137393 12.37302936 -0.28162025 9.99106036 -0.1875 7.375 C-0.17396484 6.66859375 -0.16042969 5.9621875 -0.14648438 5.234375 C-0.1111104 3.48925872 -0.05730221 1.74453392 0 0 Z " fill="#1F27F1" transform="translate(337,465)"/>
<path d="M0 0 C0 4.09856756 -1.86405595 5.59781611 -4.39453125 8.671875 C-6.53491133 11.61170183 -6.53491133 11.61170183 -9 18 C-3.06 18 2.88 18 9 18 C9.33 16.35 9.66 14.7 10 13 C12.375 10.625 12.375 10.625 15 9 C15.99 9.33 16.98 9.66 18 10 C17.05125 10.53625 16.1025 11.0725 15.125 11.625 C11.36764122 14.01720419 11.36764122 14.01720419 10 20 C3.07 20 -3.86 20 -11 20 C-8.834273 11.33709199 -6.44299314 5.90607704 0 0 Z " fill="#1618F1" transform="translate(846,474)"/>
<path d="M0 0 C2.54819421 2.54819421 2.32651557 3.69048864 2.52734375 7.234375 C2.59759766 8.28367187 2.66785156 9.33296875 2.74023438 10.4140625 C2.87081056 12.62222209 2.99845779 14.83055701 3.12304688 17.0390625 C3.51044846 22.74887329 3.98430681 26.99046007 7 32 C6.75 33.9375 6.75 33.9375 6 36 C5.6503582 38.33094534 5.31445513 40.66404762 5 43 C4.67 43 4.34 43 4 43 C3.42126701 38.64526516 2.85204507 34.28941547 2.29101562 29.93237305 C2.09951578 28.4551574 1.90557148 26.97825623 1.70898438 25.50170898 C0.57637662 16.9811471 -0.33299614 8.61743148 0 0 Z " fill="#F57B11" transform="translate(345,496)"/>
<path d="M0 0 C0.33 0 0.66 0 1 0 C0.85856168 2.7294586 0.71200471 5.45848123 0.5625 8.1875 C0.50352539 9.34088867 0.50352539 9.34088867 0.44335938 10.51757812 C0.22492966 14.43251075 -0.08692108 18.17120688 -1 22 C-1.33 20.68 -1.66 19.36 -2 18 C-2.99 18 -3.98 18 -5 18 C-6.34721372 10.52908757 -6.34721372 10.52908757 -4.6875 8 C-3 7 -3 7 -1 7 C-0.67 4.69 -0.34 2.38 0 0 Z " fill="#F57215" transform="translate(182,470)"/>
<path d="M0 0 C0.66 0.33 1.32 0.66 2 1 C-2.97325499 3.8578255 -7.48100149 4.81913967 -13.0625 5.625 C-14.63680779 5.86660805 -16.21102914 6.10878011 -17.78515625 6.3515625 C-18.51492676 6.46145508 -19.24469727 6.57134766 -19.99658203 6.68457031 C-22.34627442 7.05451944 -24.67380866 7.50387066 -27 8 C-25.6396672 5.2793344 -23.71347505 4.72045866 -20.98828125 3.59765625 C-17.97259651 2.69117341 -15.11615984 2.8092147 -12 3 C-12 2.34 -12 1.68 -12 1 C-11.07767578 1.01740234 -11.07767578 1.01740234 -10.13671875 1.03515625 C-8.92435547 1.04869141 -8.92435547 1.04869141 -7.6875 1.0625 C-6.88699219 1.07410156 -6.08648438 1.08570313 -5.26171875 1.09765625 C-2.83138666 1.09657855 -2.83138666 1.09657855 0 0 Z " fill="#191BEE" transform="translate(883,512)"/>
<path d="M0 0 C6.0077443 1.59028526 9.17626611 5.93543451 12.234375 11.07421875 C15.12447133 16.90676823 15.75874054 22.54630946 16 29 C15.01 28.67 14.02 28.34 13 28 C12.98582031 27.32195312 12.97164063 26.64390625 12.95703125 25.9453125 C12.54723112 17.94867204 10.87469265 10.94689189 5.11328125 5.078125 C3.89009604 4.03606052 2.63933267 3.0249135 1.35546875 2.05859375 C0.90816406 1.70925781 0.46085937 1.35992187 0 1 C0 0.67 0 0.34 0 0 Z " fill="#EF7C15" transform="translate(277,431)"/>
<path d="M0 0 C0 0.66 0 1.32 0 2 C-0.99 2 -1.98 2 -3 2 C-3 1.34 -3 0.68 -3 0 C-12.15244471 -0.30659554 -20.34796755 -0.49409003 -29 3 C-22.8515335 -6.22269975 -8.70895228 -3.87064546 0 0 Z " fill="#F17D16" transform="translate(275,429)"/>
<path d="M0 0 C0.33 0 0.66 0 1 0 C1.18451025 11.52164009 1.18451025 11.52164009 0 17 C-0.66 17 -1.32 17 -2 17 C-3.80098121 13.17291493 -4.28143104 10.22146566 -4 6 C-3.67 5.34 -3.34 4.68 -3 4 C-2.01 4 -1.02 4 0 4 C0 2.68 0 1.36 0 0 Z " fill="#F87412" transform="translate(173,549)"/>
<path d="M0 0 C0.66 0.33 1.32 0.66 2 1 C1.67 1.78375 1.34 2.5675 1 3.375 C-0.11866511 5.84332497 -0.11866511 5.84332497 0 8 C-1.32 8 -2.64 8 -4 8 C-4 8.99 -4 9.98 -4 11 C-4.99 11.33 -5.98 11.66 -7 12 C-7.33 12.99 -7.66 13.98 -8 15 C-8.99 14.67 -9.98 14.34 -11 14 C-9.73253547 12.2267539 -8.46089765 10.45649025 -7.1875 8.6875 C-6.47980469 7.70136719 -5.77210938 6.71523438 -5.04296875 5.69921875 C-3.45369163 3.59942813 -1.92542371 1.77965031 0 0 Z " fill="#2029F0" transform="translate(232,421)"/>
<path d="M0 0 C0.33 0 0.66 0 1 0 C2.3213258 8.7419859 3.33165588 17.137418 3 26 C2.67 26 2.34 26 2 26 C2 24.35 2 22.7 2 21 C1.34 21 0.68 21 0 21 C0 14.07 0 7.14 0 0 Z " fill="#1622F4" transform="translate(347,528)"/>
<path d="M0 0 C6.6 0 13.2 0 20 0 C20 0.33 20 0.66 20 1 C18.9378125 1.09796875 17.875625 1.1959375 16.78125 1.296875 C8.98313395 2.09585475 2.88059762 3.00925338 -4 7 C-4.66 6.67 -5.32 6.34 -6 6 C-2.25 3 -2.25 3 0 3 C0 2.01 0 1.02 0 0 Z " fill="#1321F6" transform="translate(249,425)"/>
<path d="M0 0 C1.485 0.99 1.485 0.99 3 2 C4.16148471 8.6521397 4.11334109 15.26250202 4 22 C3.67 22 3.34 22 3 22 C2.87882812 20.98679687 2.75765625 19.97359375 2.6328125 18.9296875 C2.46386217 17.5780849 2.29457331 16.22652458 2.125 14.875 C2.04636719 14.20984375 1.96773438 13.5446875 1.88671875 12.859375 C1.35611974 8.69621356 0.45813446 4.93328708 -1 1 C-0.67 0.67 -0.34 0.34 0 0 Z " fill="#F87B0F" transform="translate(340,464)"/>
<path d="M0 0 C0.33 1.32 0.66 2.64 1 4 C1.66 4 2.32 4 3 4 C3 8.95 3 13.9 3 19 C2.67 19 2.34 19 2 19 C1.67 17.35 1.34 15.7 1 14 C0.67 14 0.34 14 0 14 C0 9.38 0 4.76 0 0 Z " fill="#272BF0" transform="translate(173,560)"/>
<path d="M0 0 C4.455 0.99 4.455 0.99 9 2 C8.67 2.66 8.34 3.32 8 4 C8.89163577 6.11683841 8.89163577 6.11683841 10 8 C5.74508335 7.52723148 3.77457155 5.07452523 1 2 C0.67 1.34 0.34 0.68 0 0 Z " fill="#2028F0" transform="translate(176,590)"/>
<path d="M0 0 C-3.96 3.465 -3.96 3.465 -8 7 C-8.66 6.34 -9.32 5.68 -10 5 C-8.8125 2.5625 -8.8125 2.5625 -7 0 C-4.08670507 -0.99478363 -2.78002188 -1.39001094 0 0 Z " fill="#2028F0" transform="translate(349,592)"/>
<path d="M0 0 C3.91638453 1.32828426 6.3483131 2.94008767 9.25 5.875 C9.93578125 6.55304688 10.6215625 7.23109375 11.328125 7.9296875 C13.02265402 10.02805287 13.59836978 11.36577827 14 14 C11.28885528 12.97163476 10.17143156 12.29388267 8.6875 9.75 C6.69991136 6.51096667 4.36364545 4.59439842 1.42578125 2.234375 C0.95527344 1.82703125 0.48476563 1.4196875 0 1 C0 0.67 0 0.34 0 0 Z " fill="#1120F9" transform="translate(286,418)"/>
<path d="M0 0 C0.375 2.25 0.375 2.25 0 5 C-3 7.3125 -3 7.3125 -6 9 C-6 7.68 -6 6.36 -6 5 C-6.33 4.01 -6.66 3.02 -7 2 C-1.125 0 -1.125 0 0 0 Z " fill="#F57219" transform="translate(191,457)"/>
<path d="M0 0 C0.66 0 1.32 0 2 0 C3.4606285 2.64738916 4 3.89448334 4 7 C2.35 7 0.7 7 -1 7 C-1.33 5.35 -1.66 3.7 -2 2 C-1.34 2 -0.68 2 0 2 C0 1.34 0 0.68 0 0 Z " fill="#222BF4" transform="translate(300,433)"/>
<path d="M0 0 C0.66 0.33 1.32 0.66 2 1 C0.576875 2.36125 0.576875 2.36125 -0.875 3.75 C-2.75917709 5.61216568 -3.95768653 6.91302232 -5.125 9.3125 C-6 11 -6 11 -8.125 11.75 C-9.053125 11.87375 -9.053125 11.87375 -10 12 C-7.11954533 7.34695784 -3.96084779 3.78080926 0 0 Z " fill="#F43C10" transform="translate(145,380)"/>
<path d="M0 0 C1.32 0.66 2.64 1.32 4 2 C3.1875 4.9375 3.1875 4.9375 2 8 C1.01 8.33 0.02 8.66 -1 9 C-1.125 2.25 -1.125 2.25 0 0 Z " fill="#F77114" transform="translate(235,443)"/>
<path d="M0 0 C0.33 0.66 0.66 1.32 1 2 C3.52733235 2.65555119 3.52733235 2.65555119 6 3 C5.34 3.66 4.68 4.32 4 5 C3.53837573 7.43252661 3.53837573 7.43252661 3.375 10.125 C3.30023438 11.03507812 3.22546875 11.94515625 3.1484375 12.8828125 C3.09945313 13.58148438 3.05046875 14.28015625 3 15 C2.67 15 2.34 15 2 15 C1.34 10.05 0.68 5.1 0 0 Z " fill="#FA780F" transform="translate(306,442)"/>
<path d="M0 0 C0.66 0.66 1.32 1.32 2 2 C-0.64458379 3.32229189 -2.67761301 3.09677194 -5.625 3.0625 C-6.62789062 3.05347656 -7.63078125 3.04445313 -8.6640625 3.03515625 C-9.43492187 3.02355469 -10.20578125 3.01195312 -11 3 C-7.23708317 -0.1412896 -4.92712171 -0.45621497 0 0 Z " fill="#F36C33" transform="translate(568,537)"/>
<path d="M0 0 C1.32 0.33 2.64 0.66 4 1 C3.58578031 5.83256305 1.53586014 7.82679218 -2 11 C-0.80100302 7.9168649 0.47700477 4.93720508 2 2 C1.34 2 0.68 2 0 2 C0 1.34 0 0.68 0 0 Z " fill="#222BEE" transform="translate(236,432)"/>
<path d="M0 0 C0.66 0 1.32 0 2 0 C2.12375 0.61875 2.2475 1.2375 2.375 1.875 C2.87197356 4.19120832 2.87197356 4.19120832 5 6 C1.65626525 5.44271087 -1.03312999 4.64826111 -4 3 C-2.68 2.67 -1.36 2.34 0 2 C0 1.34 0 0.68 0 0 Z " fill="#1E29F4" transform="translate(274,424)"/>
<path d="M0 0 C0 3.58912412 -0.66436554 4.10857029 -3 6.6875 C-3.556875 7.31011719 -4.11375 7.93273437 -4.6875 8.57421875 C-5.120625 9.04472656 -5.55375 9.51523437 -6 10 C-6.66 9.67 -7.32 9.34 -8 9 C-6.85459775 7.68712379 -5.70866567 6.37470979 -4.5625 5.0625 C-3.92441406 4.33160156 -3.28632813 3.60070312 -2.62890625 2.84765625 C-1.77458541 1.87860647 -0.91348825 0.91348825 0 0 Z " fill="#FA800A" transform="translate(244,432)"/>
<path d="M0 0 C-0.99 0.33 -1.98 0.66 -3 1 C-3.33 1.99 -3.66 2.98 -4 4 C-5.65 4 -7.3 4 -9 4 C-8.67 3.01 -8.34 2.02 -8 1 C-2.59770115 -1.29885057 -2.59770115 -1.29885057 0 0 Z " fill="#F24B18" transform="translate(659,534)"/>
<path d="M0 0 C0 3 0 3 -2.375 5.625 C-5 8 -5 8 -7 9 C-5.64978174 4.58110387 -3.73884332 2.65654657 0 0 Z " fill="#2023F0" transform="translate(733,472)"/>
</svg>
